<?xml version="1.0" encoding="utf-8"?>
<!-- Generator: Adobe Illustrator 15.1.0, SVG Export Plug-In  -->
<!DOCTYPE svg PUBLIC "-//W3C//DTD SVG 1.1//EN" "http://www.w3.org/Graphics/SVG/1.1/DTD/svg11.dtd" [
	<!ENTITY ns_flows "http://ns.adobe.com/Flows/1.0/">
]>
<svg version="1.1"
	 xmlns="http://www.w3.org/2000/svg" xmlns:xlink="http://www.w3.org/1999/xlink" xmlns:a="http://ns.adobe.com/AdobeSVGViewerExtensions/3.0/"
	 x="0px" y="0px" width="402px" height="146px" viewBox="0 0 402 146" overflow="visible" enable-background="new 0 0 402 146"
	 xml:space="preserve">
<defs>
</defs>
<path d="M105.7,73.1c-3,0.2-6.3,3.3-9.4,6.2l-3.5,3.1l-2.3,1.8c-4.3,3.4-8.4,6.5-8.5,11.2c0,0,0,0,0,0c0,0.1,0,0.1,0,0.2
	c0.4,1.4,1.1,2.3,2.1,2.8c2.4,1,6-1.1,9.7-3.3c2.2-1.3,4.5-2.7,6.3-3.1c1.7,3.6,3.9,5.8,6.6,6.3c6.7,1.3,15-7.1,21.6-13.9
	c0,0,1.4-1.4,1.9-1.9c0.1,0.1,0.3,0.1,0.4,0.2c0.4,0.1,0.9,0.3,1,0.5c0,0.1,0,0.1,0,0.2c0,0.1,0,0.2-0.1,0.3
	c-4.5,4.5-6.1,8.4-6.1,10.9c0,0.6,0.1,1,0.2,1.5c0.3,0.9,0.9,1.5,1.6,1.6c4.4,1,7.7-1.6,10.6-3.8c1.5-1.1,2.8-2.1,4.2-2.7
	c0.2,0.5,0.4,1.1,0.4,1.1c0.4,1.6,0.8,3.3,3.7,4.6c8.5,2,14.6,0.7,24.8-1.8c4.4-1.1,5.5-3.9,5.4-4.6c-0.1-1-0.5-1.6-1.1-1.9
	c-1-0.6-2.2-0.1-3.6,0.5l-1.3,0.5c-4.8,1.6-5.6,1.8-6.8,2.1l-1.8,0.5c-2.5,0.7-9.4,0.9-10.9-1c-0.1-0.2-0.6-0.8,0.3-2.2
	c5.7-8.2,13.2-8.8,17.7-9.1c2-0.1,3.1-0.2,3.7-0.9l0.3-1c0-0.1,0,0,0-0.2c-0.9-2.7-2.9-2.9-4.2-3.1c-8.6-1.1-20.6,7-25.4,10.5
	l-1.9,1.5c-2.3,1.9-4.9,3.9-8.3,4.7c0.4-0.5,0.8-1.1,1.3-1.7c2.7-3.4,6.1-7.7,6.1-10.8c0-0.7-0.2-1.3-0.6-1.8
	c-2-2.4-4.1-3.6-6.3-3.6c-4.3,0-8.1,4.5-12.1,9.2c-4.5,5.3-9.1,10.7-14.2,9.7c-0.4,0-1.1-0.3-1.8-1.1c-0.8-0.8-1.2-1.6-1.2-1.9
	c0.6-1.6,2.1-3.6,3.6-5.6c2.1-2.9,4.2-5.6,4.2-7.6c0-0.4-0.1-0.8-0.3-1.2C111.2,73.3,109.2,72.8,105.7,73.1z M102.2,82.1
	c-2.9,3.6-5.9,6.1-9.3,7.6C95.7,86.1,98.7,83.6,102.2,82.1z"/>
<path d="M329.1,39.8l-1.6,1.5c0,0,0,0,0,0c-6.1,5.5-12.3,11.4-18.3,17l-1.9,1.8l-3.9,4.1c-2.1,2.2-4,4.3-6,5.7
	c-2.4,1.6-5.3,2.5-8.2,3.3c-4.3,1.2-8.8,2.5-11.4,6.6c-0.2,0.2-0.1,0.6,0,0.8c2.3,3.1,5.3,1.6,7.7,0.3c1-0.5,1.9-1,2.8-1.1
	c-1.5,2.4-4.2,5.1-7,7.7c-3.9,3.7-7.6,7.1-7.6,10c0,0.1,0,0.2,0,0.3c0.1,1.1,0.7,2,1.8,2.7c0.1,0,0.1,0.1,0.2,0.1
	c4.5,1.1,9.3-2.5,13.5-5.6l4.2-2.9l4-2.6c3.2-2.2,6.5-4.4,10.4-5.6c-2.3,2.8-4.2,6.6-4.2,9.8c0,0.6,0.1,1.1,0.2,1.6
	c0.5,2.2,2,3.7,4.5,4.4c1.7,0.5,4.4,0.2,5.8-0.1c2.4-0.5,5-1.7,7.5-2.8c2.7-1.2,5.5-2.4,8-2.8c8.3,10.3,27.5-1.7,27.7-1.8
	c5.9-4.4,7.1-6.1,8-7.3l0.6-0.8c0.9-0.7,1.8-0.5,2.3-0.3c-0.5,0.5-1.5,1.4-2.4,2.2c-4.2,3.6-7.4,6.5-7.4,8.4c0,0.1,0,0.1,0,0.2
	c0,0.1,0,0.1,0.1,0.2c2.9,6.2,19.3,2.2,25.5,0.7l1.4-0.3c0,0,2.7-0.6,2.7-0.6c6.6-1.5,10.2-2.3,13.9-5.9c0.2-0.2,0.3-0.5,0.2-0.7
	c-0.1-0.3-0.4-0.4-0.6-0.4c-3.9,0-7.4,0.9-10.8,1.7c-2,0.5-4.1,1-6.2,1.4l-4.2,0.8c-4.6,0.9-10.1,1.9-12.9,1.1
	c1.2-1.3,2.6-2.3,4.1-3.3c3-2,6-4.2,7.6-8.5c0-0.1,0-0.2,0-0.2c0-0.1,0-0.2-0.1-0.3c-2.5-5.1-12.3-3.5-15.6-2
	c-0.1,0.1-0.2,0.2-0.3,0.3c-2.6,4.5-6.5,7.7-12.9,10.6l-0.4,0.2c-3.8,1.7-8.8,4-12.1,2c1.5-1.2,4.1-2.2,7-3.1c5-1.7,10.2-3.5,11-7.6
	c0-0.2,0.1-0.4,0.1-0.6c0-1.9-1.3-4.5-3.6-5c-3.8-0.9-13.5,6.8-16.4,9.2l-4,2.9l-0.8,0.5c-2.5,1.7-6,2.9-8.9,3.9l-1.1,0.4l-0.9,0.3
	c-3.3,1.1-7,2.4-9.7,0.9c0.2-2.9,2.9-6.1,5.3-9c2.1-2.5,3.8-4.5,3.8-6.2c0-0.2,0-0.4-0.1-0.6c-0.2-0.8-0.9-1.4-2-1.8
	c-4.6-1.3-12.4,3.6-18.1,7.1l-0.7,0.4c0,0-4,2.6-4,2.6c-3.2,2.2-6.4,4.2-9.6,5.6c1.7-1.9,3.4-3.9,5-6c3.2-4.2,6.4-8.5,10.8-10.9
	l8.4-4.4c5.6-2.9,11.4-5.8,16.5-9.3l3.7-2.4c2.7-1.7,5.5-3.6,8-5.6c3.4-2.8,8.6-7.1,10-11c0.5-1.5,0.8-2.8,0.8-4
	c0-1.2-0.3-2.2-0.9-3c-1-1.4-2.8-2.2-5.3-2.2C337.3,32.3,332.8,36.4,329.1,39.8z M339.7,40c0.3,0,0.4,0.1,0.4,0.1c0,0,0,0,0,0.1
	c0,0.8-2.9,4.4-11.2,11c-4.2,3.4-7.9,5.7-12.3,8.2C326.2,50.6,338.2,40.8,339.7,40z"/>
<path d="M239.6,80.8c-5,2.5-9.8,13.9-9.1,18c0.1,0.4,0.4,0.6,0.7,0.6c5-0.4,8.9-8.4,11.7-14.3l1.4-2.8c0.1-0.3,0.1-0.6-0.1-0.8
	C242.9,80.2,241.3,80,239.6,80.8z"/>
<path fill-rule="evenodd" clip-rule="evenodd" d="M248,63.9c-1.6,1-2.5,2.5-2.3,3.8v0c0.2,1.1,0.8,1.9,1.7,2.2
	c1.3,0.5,3.2,0,4.7-1.2c1.6-1.3,2.3-3.1,1.9-4.9c0-0.2-0.2-0.4-0.3-0.5C252.1,62.4,249.9,62.6,248,63.9z"/>
<path d="M247.1,13.1c-0.5,0.1-9.8,1.9-10.4,2c0-0.8-0.2-1.5-0.6-1.9c-0.6-0.7-1.4-1-2.6-1c-3.7,0-8.8,2-15.1,6.1
	c-1,0.7-1.5,1.6-1.5,2.7c0,2.2,1.1,3.4,3.3,3.4c2.2,0,5.5-0.3,9.6-1.1c0,0,3.2-0.7,3.2-0.7l6.3-1.2c0,0,3.5-0.6,3.7-0.6
	c-1.2,2.2-9.7,17.5-9.7,17.5s-5.2,9.5-6,10.9c-6.6,1.1-13,2.5-16.4,3.3l-1.2,0.3c-0.3,0-10.8,0.6-17.1,4.7c-1,0.7-1.5,1.6-1.5,2.7
	c0,0,0,0,0,0.1c0,1.1,0.3,1.9,0.9,2.5c0.6,0.6,1.4,0.9,2.4,0.9c2.2,0,5.5-0.3,9.6-1.1c0,0,4.1-1.1,4.1-1.1l2.8-0.8
	c4.2-1.1,8.1-2,11.6-2.8c-6.4,11.6-14.6,26-22.4,38.1l-4.2,6.8c-4.7,7.6-12.5,20.3-13.3,21.3c-2.7,3.2-8.6,15.3-8.9,15.8
	c0,0.1-0.1,0.2-0.1,0.2c0,0.4-0.1,0.9-0.1,1.2c0,1.4,0.3,2.3,0.9,2.9c0.8,0.7,1.8,0.4,2.6,0.3l0.7-0.1c2.9,1,12.1-15,12.2-15.1
	l4.2-7.9c5.9-11,15.8-29.4,18.8-34.4c1.6-2.8,6.9-10.9,11.6-18.1c4-6.2,7.5-11.5,8.1-12.6c0,0,0.1-0.1,0.1-0.2
	c12.2-1.8,17.4-0.3,23.5,1.4l2.4,0.7c0.3,0.1,0.7-0.1,0.9-0.4c0.4-0.9-0.7-3.7-3.4-5.5c-5.4-3.6-14.7-4.1-18.5-4
	c0.6-1.1,1.4-2.5,1.4-2.5c6.9-9.6,12.3-20.7,14.9-26.7c0.7-0.1,12.4-2.2,12.4-2.2c18-3.2,26.2-4.7,40-5.4c1.8-0.1,2.5,0.1,2.7,0.1
	c-0.1,0.2-0.3,0.5-0.3,0.5c-0.3,0.4-0.6,0.9-0.6,1.4c0,0,0,0,0,0c0,1.2,1.3,2.1,2,2.4c3.1,1.4,5.3,1.5,8.2,0.4c2.7-1,4-3.5,4-4.3
	c0,0,0-0.4,0-0.4c0-0.8,0-1.7-0.6-3.1c-1.1-2.3-3.4-4.5-12.5-4.8c-5.7-0.2-22.8,2.3-52.1,7.7c1.1-2.9,2.7-7.4,2.7-9.2
	c0-0.2,0-0.4-0.1-0.5c0-0.1-0.3-0.8-1-0.9C257.8,0.3,254.8-0.5,247.1,13.1z"/>
<path fill-rule="evenodd" clip-rule="evenodd" d="M110,2.8C110,2.8,110,2.8,110,2.8c0,0-1.9,1.4-1.9,1.4c-4,2.9-11.5,8.3-20.4,17
	l-1.1,1.1c-8.8,8.5-14.8,14.4-37.8,44.9c3.6-6.4,8-13.6,12.1-20.2l6-9.9l1.2-1.8c1.3-1.9,3-4.3,3-6.7c0-1.3-0.4-2.5-1.6-3.8
	c-0.1-0.1-0.3-0.2-0.5-0.2c-9.4,0.4-16.9,8.3-22.4,14.1L43.4,42c-1.9,1.9-3,3.1-4,4.4c1.5-3.1,3.8-8.4,3.8-12.6c0-1.5-0.3-2.8-1-3.9
	c-1.2-1.7-3.4-2.4-6.5-2c-5.8,0.8-11.9,4.5-17.8,8l-0.7,0.4l-1.2,0.7C10.4,40.6,5.3,43.8,6,46.4c0.4,1.9,1.8,3.4,3.5,4.1
	c1.5,0.6,3.1,0.3,4.5-0.6c2.2-1.6,4-3.1,5.7-4.6c4.1-3.4,8-6.7,16.6-10.2c-6.8,16-21.9,42.2-24.3,45.9c-2,3-3.1,5.1-4.1,6.9
	c-1.6,3-2.9,5.4-6.9,10.3c0,0-0.1,0.1-0.1,0.1c-0.5,1-0.8,1.9-0.8,2.6c0,0.9,0.3,1.6,0.7,2c1.5,1.8,4.8,1.8,6.1,1.4
	c0.1,0,0.2-0.1,0.3-0.2c5.3-7.1,5.7-7.8,8.9-13.1L25,76.8c5.8-9.2,20.4-31.1,36.5-43.1c-1,1.6-2,3.3-2,3.3
	C42.8,64.7,30.1,86.3,29.7,90.6c0.1,1.8,1,3.8,2.7,4.4c1,0.3,2.7,0.2,4.5-2.2c5.7-7.4,14.4-18,18.4-22.8c5-5.9,9.3-11.3,13.5-16.5
	c10.9-13.6,20.4-25.4,34.9-37l1.3-1.1c0,0,4.9-3.9,7.4-5.8c-0.1,0.2-0.2,0.4-0.4,0.6c-9.6,10.2-41.4,59.9-46,67.5l-4.6,7.6
	l-11.1,18.1c-4.1,6.4-16.2,26.4-19.3,34.1c0,0.1,0,0.1,0,0.2c0,0.2-0.1,0.7-0.1,1.4c0,1.7,0.3,4.5,2,5.7c1.1,0.8,2.6,0.7,4.3-0.1
	c0.1,0,0.1-0.1,0.2-0.2c0.8-0.9,2.4-4.1,5.3-10.3c2.7-5.8,6.2-12.9,9.8-19.5c3-5.4,7-11.5,11.6-18.7c4.8-7.3,10.1-15.6,15.5-24.8
	c10.9-18.7,21-33.3,28.4-44c7.8-11.3,12.6-18.2,13.1-22.1c0-2.4-0.7-3.9-2.1-4.7C116.2-1,112,1.3,110,2.8z"/>
<path d="M254.6,78.7c-0.5,0.7-0.7,1.6-0.7,2.6c0,1,0.2,2.1,0.7,3.3c0.4,1.1,1.2,2,2,2.9c1,1.2,2,2.4,2,3.7c0,0.2,0,0.5-0.1,0.8
	c-0.3,1.2-7,3-8.6,3c-1.7,0-2.8,1.4-2.8,2.8c0,0,0,0,0,0c0,1.2,0.9,2.1,2.2,2.1c8.8,0,13.9-2.2,15.1-6.4c0.2-0.9,0.4-1.6,0.4-2.3
	c0-1.7-0.7-3.1-1.8-5.3l-1-1.3c-0.5-0.6-1.6-1.9-1.7-2.4c1.4-1.4,4.1-1.8,5.7-1.5c1.4,0.3,2.7-0.3,3.2-1.4c0.4-0.9,0.2-2.3-1.4-3.5
	c-0.1-0.1-0.2-0.1-0.4-0.1l-2.9-0.2C260.5,75.7,256.3,76.2,254.6,78.7z"/>
</svg>
